#!OML:ASF X:\für Bonn\!DataBase\2005_08_11_Bastian_Final\c3d\Bastian.ASF
:FULLY-SPECIFIED
:DEGREES
185
root -21.9176 17.6436 1.00135 155.163 -68.7283 -159.609
lowerback 7.24366 3.19133 2.21507
upperback 4.19834 4.18695 -2.46007
thorax 0.637149 2.09301 -4.045
lowerneck -7.24949 -4.30606 -0.00933421
upperneck -13.6049 -5.40911 13.8863
head -2.4192 -3.43901 4.22481
rclavicle 4.6118e-014 4.13472e-014
rhumerus 41.4477 24.4951 -26.2057
rradius 108.713
rwrist 10.4268
rhand -13.3852 6.80132
rfingers 7.12502
rthumb 12.7219 -22.7911
lclavicle 4.6118e-014 4.13472e-014
lhumerus -23.2469 -7.02283 82.5306
lradius 4.22929
lwrist 0.440176
lhand -9.41713 -4.76299
lfingers 7.12502
lthumb 16.5449 24.5517
rfemur -2.83364 1.51201 25.0611
rtibia 33.8343
rfoot -14.4636 -7.07624
rtoes -15.82
lfemur -6.17881 4.06842 -13.1858
ltibia 27.1693
lfoot -8.70412 -12.4051
ltoes -11.9915
186
root -21.9059 17.6458 0.997227 155.255 -68.838 -159.742
lowerback 7.17651 3.11064 1.97626
upperback 4.22271 4.06506 -2.41326
thorax 0.667137 2.02731 -3.8511
lowerneck -7.13891 -4.12704 -0.144671
upperneck -13.5462 -5.15628 13.8042
head -2.43557 -3.3016 4.22629
rclavicle 1.13307e-014 -9.54166e-015
rhumerus 40.429 27.5356 -25.5766
rradius 110.04
rwrist 11.4781
rhand -13.3882 7.23102
rfingers 7.12502
rthumb 12.719 -22.3616
lclavicle 1.13307e-014 -9.54166e-015
lhumerus -22.9707 -7.03006 82.4776
lradius 4.62842
lwrist 0.82472
lhand -9.6816 -4.9429
lfingers 7.12502
lthumb 16.2902 24.3928
rfemur -2.94882 1.94106 25.0011
rtibia 33.9571
rfoot -14.4466 -6.50745
rtoes -16.0059
lfemur -6.13495 4.03026 -13.2208
ltibia 27.0758
lfoot -8.75715 -12.6239
ltoes -12.3334
187
root -21.8936 17.6489 0.993482 155.254 -68.973 -159.747
lowerback 7.09229 3.0185 1.76442
upperback 4.23488 3.93105 -2.35434
thorax 0.695299 1.95618 -3.6587
lowerneck -7.07585 -3.93839 -0.231446
upperneck -13.4386 -4.90165 13.6707
head -2.43353 -3.1594 4.20131
rclavicle 6.38099e-014 -5.56597e-014
rhumerus 39.4901 30.7773 -24.9079
rradius 111.141
rwrist 12.4623
rhand -13.5216 7.54816
rfingers 7.12502
rthumb 12.5903 -22.0524
lclavicle 6.38099e-014 -5.56597e-014
lhumerus -22.7123 -7.04313 82.447
lradius 5.1025
lwrist 1.2713
lhand -9.92788 -5.1221
lfingers 7.12502
lthumb 16.0531 24.2329
rfemur -3.0965 2.42368 24.9927
rtibia 34.0835
rfoot -14.426 -5.98385
rtoes -16.2181
lfemur -6.13431 3.91499 -13.2288
ltibia 26.9853
lfoot -8.80498 -12.807
ltoes -12.609
188
root -21.8812 17.6519 0.988808 155.281 -69.1268 -159.802
lowerback 7.00791 2.94557 1.52588
upperback 4.26006 3.82061 -2.3026
thorax 0.7388 1.89631 -3.45993
lowerneck -6.99792 -3.76371 -0.314882
upperneck -13.3625 -4.66317 13.5393
head -2.44215 -3.02773 4.17729
rclavicle 2.18663e-015 -9.54166e-015
rhumerus 38.5709 34.1736 -24.2491
rradius 112.034
rwrist 13.38
rhand -13.7184 7.70969
rfingers 7.12502
rthumb 12.4006 -21.9025
lclavicle 2.18663e-015 -9.54166e-015
lhumerus -22.4032 -7.1108 82.4459
lradius 5.54907
lwrist 1.79872
lhand -10.2592 -5.38575
lfingers 7.12502
lthumb 15.734 23.9947
rfemur -3.22461 2.96517 24.9672
rtibia 34.2169
rfoot -14.4607 -5.45474
rtoes -16.2937
lfemur -6.11811 3.88696 -13.2529
ltibia 26.894
lfoot -8.84421 -13.0778
ltoes -13.036
189
root -21.8676 17.6541 0.983767 155.304 -69.3269 -159.842
lowerback 6.92522 2.86773 1.25578
upperback 4.27528 3.70265 -2.25103
thorax 0.76963 1.83182 -3.24398
lowerneck -7.0649 -3.57741 -0.256013
upperneck -12.9078 -4.50315 12.9887
head -2.64809 -2.88628 4.43443
rclavicle -1.78906e-015 1.90833e-014
rhumerus 37.6641 37.7378 -23.6573
rradius 112.677
rwrist 14.2
rhand -13.945 7.80956
rfingers 7.12502
rthumb 12.1821 -21.8157
lclavicle -1.78906e-015 1.90833e-014
lhumerus -22.1309 -7.20592 82.444
lradius 6.07101
lwrist 2.32338
lhand -10.5115 -5.66735
lfingers 7.12502
lthumb 15.491 23.732
rfemur -3.3717 3.46939 24.9238
rtibia 34.3428
rfoot -14.5005 -4.90659
rtoes -16.331
lfemur -6.12695 3.74911 -13.298
ltibia 26.8106
lfoot -8.90503 -13.2881
ltoes -13.4719
190
root -21.8542 17.6565 0.978693 155.239 -69.5631 -159.812
lowerback 6.85322 2.78961 1.01266
upperback 4.30236 3.58582 -2.20268
thorax 0.810361 1.76837 -3.04702
lowerneck -6.96019 -3.40711 -0.297772
upperneck -12.8532 -4.27023 12.8329
head -2.66793 -2.76058 4.39023
rclavicle 7.45443e-014 -1.27222e-014
rhumerus 36.7354 41.3891 -23.1979
rradius 113.053
rwrist 14.9477
rhand -14.148 7.90447
rfingers 7.12502
rthumb 11.9864 -21.7323
lclavicle 7.45443e-014 -1.27222e-014
lhumerus -21.8375 -7.34184 82.4711
lradius 6.62946
lwrist 2.93223
lhand -10.7888 -5.92727
lfingers 7.12502
lthumb 15.2239 23.4926
rfemur -3.48744 3.96745 24.8907
rtibia 34.4647
rfoot -14.5675 -4.36398
rtoes -16.2267
lfemur -6.12374 3.57032 -13.3391
ltibia 26.7337
lfoot -8.96462 -13.4944
ltoes -13.8725
